<?xml version="1.0" encoding="UTF-8"?>
<svg width="500px" height="500px" viewBox="0 0 500 500" xmlns="http://www.w3.org/2000/svg">
  <defs>
    <pattern id="leaf-pattern" x="0" y="0" width="100" height="100" patternUnits="userSpaceOnUse">
      <path d="M25,5 C35,5 45,15 45,25 C45,35 35,45 25,45 C15,45 5,35 5,25 C5,15 15,5 25,5 Z" fill="none" stroke="#4CAF50" stroke-width="0.5" opacity="0.3"/>
      <path d="M25,5 C25,25 25,45 25,45" fill="none" stroke="#4CAF50" stroke-width="0.5" opacity="0.3"/>
      <path d="M5,25 C25,25 45,25 45,25" fill="none" stroke="#4CAF50" stroke-width="0.5" opacity="0.3"/>
      <path d="M75,55 C85,55 95,65 95,75 C95,85 85,95 75,95 C65,95 55,85 55,75 C55,65 65,55 75,55 Z" fill="none" stroke="#4CAF50" stroke-width="0.5" opacity="0.3"/>
      <path d="M75,55 C75,75 75,95 75,95" fill="none" stroke="#4CAF50" stroke-width="0.5" opacity="0.3"/>
      <path d="M55,75 C75,75 95,75 95,75" fill="none" stroke="#4CAF50" stroke-width="0.5" opacity="0.3"/>
    </pattern>
  </defs>
  <rect x="0" y="0" width="500" height="500" fill="url(#leaf-pattern)" />
</svg>
